<svg viewBox="0 0.85 28 28" width="512" height="512" fill="none" xmlns="http://www.w3.org/2000/svg">
    <path d="M16.1088 1.47023C14.7617 0.768041 13.157 0.76804 11.8099 1.47023L2.50369 6.32129C0.965066 7.12333 0 8.71541 0 10.4517V19.3543C0 21.0905 0.965067 22.6826 2.50369 23.4847L11.8099 28.3357C12.2276 28.5534 12.67 28.7036 13.1218 28.7864V22.441C13.1218 18.7405 10.1219 15.7405 6.42132 15.7405H3.35025V14.0654H6.42132C10.1219 14.0654 13.1218 11.0655 13.1218 7.3649V4.29383H14.797V7.3649C14.797 11.0655 17.7969 14.0654 21.4975 14.0654H27.9188V10.4517C27.9188 8.71541 26.9537 7.12333 25.4151 6.32129L16.1088 1.47023ZM27.9188 15.7405H21.4975C17.7969 15.7405 14.797 18.7405 14.797 22.441V28.7864C15.2488 28.7036 15.6912 28.5534 16.1088 28.3357L25.4151 23.4847C26.9537 22.6826 27.9188 21.0905 27.9188 19.3543V15.7405Z" fill="url(#paint0_linear_2527_859)"></path>
    <defs>
        <linearGradient id="paint0_linear_2527_859" x1="27.9188" y1="0.943588" x2="0.076117" y2="28.8623" gradientUnits="userSpaceOnUse">
            <stop offset="0.15" stop-color="#A0A4EE"></stop>
            <stop offset="0.8" stop-color="#596CED"></stop>
        </linearGradient>
    </defs>
</svg>
